<?xml version="1.0" encoding="UTF-8"?>
<!DOCTYPE svg PUBLIC "-//W3C//DTD SVG 1.1//EN" "http://www.w3.org/Graphics/SVG/1.1/DTD/svg11.dtd">
<svg xmlns="http://www.w3.org/2000/svg" version="1.1" width="90px" height="90px" style="shape-rendering:geometricPrecision; text-rendering:geometricPrecision; image-rendering:optimizeQuality; fill-rule:evenodd; clip-rule:evenodd" xmlns:xlink="http://www.w3.org/1999/xlink">
<g><path style="opacity:0.88" fill="#000000" d="M 41.5,5.5 C 43.5,5.5 45.5,5.5 47.5,5.5C 47.4169,10.7644 49.7502,12.4311 54.5,10.5C 55.8026,7.62128 57.8026,6.95461 60.5,8.5C 60.9981,11.5926 61.9981,14.4259 63.5,17C 66.1667,16.6667 68.8333,16.3333 71.5,16C 72.5742,16.7387 73.2409,17.7387 73.5,19C 70.3532,25.7248 72.6865,28.8915 80.5,28.5C 82.0454,31.1974 81.3787,33.1974 78.5,34.5C 76.5689,39.2498 78.2356,41.5831 83.5,41.5C 83.5,43.5 83.5,45.5 83.5,47.5C 78.2356,47.4169 76.5689,49.7502 78.5,54.5C 81.3787,55.8026 82.0454,57.8026 80.5,60.5C 77.4074,60.9981 74.5741,61.9981 72,63.5C 72.3333,66.1667 72.6667,68.8333 73,71.5C 72.2613,72.5742 71.2613,73.2409 70,73.5C 63.2752,70.3532 60.1085,72.6865 60.5,80.5C 57.8026,82.0454 55.8026,81.3787 54.5,78.5C 49.7502,76.5689 47.4169,78.2356 47.5,83.5C 45.5,83.5 43.5,83.5 41.5,83.5C 41.5831,78.2356 39.2498,76.5689 34.5,78.5C 33.1974,81.3787 31.1974,82.0454 28.5,80.5C 28.0019,77.4074 27.0019,74.5741 25.5,72C 22.8333,72.3333 20.1667,72.6667 17.5,73C 16.4258,72.2613 15.7591,71.2613 15.5,70C 18.6468,63.2752 16.3135,60.1085 8.5,60.5C 6.95461,57.8026 7.62128,55.8026 10.5,54.5C 12.4311,49.7502 10.7644,47.4169 5.5,47.5C 5.5,45.5 5.5,43.5 5.5,41.5C 10.7644,41.5831 12.4311,39.2498 10.5,34.5C 7.62128,33.1974 6.95461,31.1974 8.5,28.5C 11.5926,28.0019 14.4259,27.0019 17,25.5C 16.6667,22.8333 16.3333,20.1667 16,17.5C 16.7387,16.4258 17.7387,15.7591 19,15.5C 25.7248,18.6468 28.8915,16.3135 28.5,8.5C 31.1974,6.95461 33.1974,7.62128 34.5,10.5C 39.2498,12.4311 41.5831,10.7644 41.5,5.5 Z M 37.5,21.5 C 53.637,19.2208 63.637,25.8874 67.5,41.5C 61.8236,41.6661 56.1569,41.4994 50.5,41C 48.8648,39.2518 46.8648,38.0851 44.5,37.5C 41.8333,32.8333 39.1667,28.1667 36.5,23.5C 36.8627,22.8165 37.1961,22.1499 37.5,21.5 Z M 29.5,26.5 C 33.5597,31.9527 36.5597,37.9527 38.5,44.5C 36.5069,50.8229 33.6736,56.8229 30,62.5C 21.6275,55.1242 19.2941,46.1242 23,35.5C 24.6107,32.0624 26.7774,29.0624 29.5,26.5 Z M 50.5,47.5 C 56.1667,47.5 61.8333,47.5 67.5,47.5C 63.2004,64.1442 52.8671,70.1442 36.5,65.5C 39.1667,60.8333 41.8333,56.1667 44.5,51.5C 47.1547,51.0248 49.1547,49.6915 50.5,47.5 Z"/></g>
</svg>
