<?xml version="1.0" encoding="UTF-8"?>
<!DOCTYPE svg PUBLIC "-//W3C//DTD SVG 1.1//EN" "http://www.w3.org/Graphics/SVG/1.1/DTD/svg11.dtd">
<svg xmlns="http://www.w3.org/2000/svg" version="1.1" width="96px" height="96px" style="shape-rendering:geometricPrecision; text-rendering:geometricPrecision; image-rendering:optimizeQuality; fill-rule:evenodd; clip-rule:evenodd" xmlns:xlink="http://www.w3.org/1999/xlink">
<g><path style="opacity:0.977" fill="#000000" d="M 44.5,7.5 C 46.5273,7.33788 48.5273,7.50454 50.5,8C 56,12.8333 61.5,17.6667 67,22.5C 66.1431,16.3536 68.6431,14.187 74.5,16C 75.3052,20.7488 75.8052,25.5821 76,30.5C 81,34.8333 86,39.1667 91,43.5C 91.49,44.7932 91.6567,46.1266 91.5,47.5C 87.5,47.5 83.5,47.5 79.5,47.5C 79.8215,59.4139 79.4882,71.2473 78.5,83C 72.2511,83.8087 66.0844,83.642 60,82.5C 59.5002,73.5062 59.3336,64.5062 59.5,55.5C 51.5,55.5 43.5,55.5 35.5,55.5C 35.6664,64.5062 35.4998,73.5062 35,82.5C 28.9156,83.642 22.7489,83.8087 16.5,83C 15.5118,71.2473 15.1785,59.4139 15.5,47.5C 11.5,47.5 7.5,47.5 3.5,47.5C 3.62155,43.8527 5.28822,41.0194 8.5,39C 20.9893,29.0075 32.9893,18.5075 44.5,7.5 Z"/></g>
</svg>
